<?xml version="1.0" encoding="UTF-8"?>
<svg id="Layer_1" xmlns="http://www.w3.org/2000/svg" version="1.1" viewBox="0 0 108 108">
  <!-- Generator: Adobe Illustrator 29.8.1, SVG Export Plug-In . SVG Version: 2.1.1 Build 2)  -->
  <defs>
    <style>
      .st0 {
        fill: #fcb61a;
      }
    </style>
  </defs>
  <path class="st0" d="M65.18,80.04c.31-.03.6-.06.9-.09l2.74,23.72c-.3.03-.6.07-.9.1l-2.74-23.73Z"/>
  <path class="st0" d="M71.16,78.86c.22-.07.43-.14.65-.22l8.16,22.53c-.22.08-.43.15-.65.22l-8.16-22.54Z"/>
  <path class="st0" d="M68.26,79.61c.22-.04.45-.09.67-.14l5.51,23.28c-.22.05-.44.09-.67.14l-5.51-23.28Z"/>
  <path class="st0" d="M62.2,103.99v-23.87c.13,0,.26,0,.39.01.18,0,.35,0,.52-.01v23.86c-.2,0-.4.01-.59.01-.11,0-.22,0-.32,0"/>
  <path class="st0" d="M56.21,79.42c.37.09.74.17,1.11.24l-5.43,23.29c-.37-.08-.74-.16-1.11-.24l5.43-23.29Z"/>
  <path class="st0" d="M58.94,79.9c.37.05.75.09,1.13.12l-2.91,23.71c-.38-.04-.75-.09-1.13-.13l2.91-23.7Z"/>
  <path class="st0" d="M79.17,33.54c-4.55-3.76-10.02-5.66-16.41-5.67-7.33-.02-13.43,2.42-18.3,7.33-2.68,2.7-4.63,5.81-5.84,9.33l-22.42-9.62c2.43-6.08,6.12-11.59,11.08-16.52,9.69-9.63,21.54-14.42,35.56-14.38,12.57.04,23.39,3.97,32.48,11.76l-16.14,17.78Z"/>
  <path class="st0" d="M53.23,78.52c.42.16.86.31,1.29.44l-8.09,22.55c-.43-.14-.87-.28-1.3-.43l8.1-22.56Z"/>
  <path class="st0" d="M43.8,72.11c.18.2.36.39.55.58.24.24.48.48.73.71l-16.99,16.99c-.34-.33-.69-.65-1.03-.99-.09-.09-.18-.19-.27-.28l17.01-17.01Z"/>
  <path class="st0" d="M78.7,74.83c.06-.05.12-.09.18-.14l14.85,18.85c-.06.04-.12.09-.18.14l-14.85-18.85Z"/>
  <path class="st0" d="M73.77,77.85c.14-.06.27-.13.41-.2l10.43,21.6c-.14.07-.27.14-.41.2l-10.43-21.6Z"/>
  <path class="st0" d="M76.29,76.51c.13-.08.26-.16.39-.24l12.72,20.34c-.13.08-.26.16-.38.24l-12.72-20.34Z"/>
  <path class="st0" d="M37.64,59.82c.12.61.25,1.22.41,1.81l-23.57,6.35c-.19-.71-.37-1.42-.53-2.14l23.69-6.02Z"/>
  <path class="st0" d="M37.24,56.95c.06.69.15,1.37.25,2.04l-24.17,3.54c-.12-.79-.23-1.6-.31-2.41l24.23-3.16Z"/>
  <path class="st0" d="M37.26,50.88c-.07.76-.11,1.54-.13,2.34l-24.39-1.64c.04-.9.09-1.79.17-2.66l24.36,1.97Z"/>
  <path class="st0" d="M37.11,54.01c0,.75.03,1.47.08,2.2l-24.42.94c-.04-.81-.07-1.63-.08-2.45l24.42-.68Z"/>
  <path class="st0" d="M38.39,45.19c-.22.7-.42,1.42-.58,2.15l-23.41-7.01c.24-.92.51-1.83.81-2.73l23.18,7.58Z"/>
  <path class="st0" d="M37.67,48.05c-.13.69-.24,1.39-.33,2.1l-24.07-4.31c.13-.88.28-1.74.45-2.6l23.95,4.8Z"/>
  <path class="st0" d="M45.9,74.16c.4.35.81.69,1.23,1.01l-14.89,18.82c-.42-.33-.84-.65-1.25-.99l14.9-18.84Z"/>
  <path class="st0" d="M50.64,77.38c.4.21.81.41,1.23.59l-10.5,21.57c-.41-.19-.82-.39-1.23-.6l10.5-21.56Z"/>
  <path class="st0" d="M41.97,69.91c.36.49.74.96,1.13,1.43l-18.69,15.2c-.4-.46-.79-.93-1.16-1.4l18.72-15.23Z"/>
  <path class="st0" d="M48.13,75.88c.44.3.89.58,1.34.85l-12.99,20.18c-.45-.28-.9-.57-1.34-.86l12.99-20.17Z"/>
  <path class="st0" d="M39.17,64.96c.24.57.49,1.13.77,1.68l-21.71,10.91c-.31-.59-.61-1.2-.9-1.8l21.83-10.78Z"/>
  <path class="st0" d="M38.25,62.36c.19.63.39,1.25.62,1.86l-22.75,8.7c-.27-.69-.53-1.38-.77-2.09l22.91-8.48Z"/>
  <path class="st0" d="M40.36,67.39c.32.58.67,1.15,1.04,1.7l-20.37,13.05c-.39-.56-.75-1.13-1.11-1.71l20.44-13.04Z"/>
  <path class="st0" d="M68.59,60.38c-1.78,1.77-3.9,2.66-6.39,2.66s-4.61-.89-6.39-2.66c-1.77-1.77-2.66-3.9-2.66-6.39s.89-4.61,2.66-6.38c1.77-1.77,3.9-2.66,6.39-2.66s4.61.89,6.39,2.66c1.77,1.78,2.66,3.9,2.66,6.38s-.89,4.61-2.66,6.39"/>
</svg>