<?xml version="1.0" encoding="UTF-8"?>
<svg id="Layer_1" xmlns="http://www.w3.org/2000/svg" version="1.1" viewBox="0 0 432 432">
  <!-- Generator: Adobe Illustrator 29.8.1, SVG Export Plug-In . SVG Version: 2.1.1 Build 2)  -->
  <defs>
    <style>
      .st0 {
        fill: #fcb61a;
      }
    </style>
  </defs>
  <path class="st0" d="M262.96,325.35c1.28-.11,2.54-.24,3.8-.4l11.5,99.63c-1.27.14-2.53.31-3.8.41l-11.5-99.65Z"/>
  <path class="st0" d="M288.06,320.42c.91-.28,1.82-.58,2.72-.91l34.26,94.64c-.91.33-1.81.62-2.72.92l-34.26-94.65Z"/>
  <path class="st0" d="M275.9,323.56c.94-.19,1.88-.37,2.81-.58l23.13,97.77c-.92.21-1.87.4-2.8.58l-23.13-97.77Z"/>
  <path class="st0" d="M250.44,425.97v-100.24c.57,0,1.1.04,1.65.05.74,0,1.46-.04,2.19-.05l-.02,100.22c-.83,0-1.64.06-2.46.05-.46,0-.91-.03-1.36-.03"/>
  <path class="st0" d="M225.29,322.77c1.55.36,3.1.7,4.68.99l-22.8,97.84c-1.56-.32-3.12-.66-4.67-1.01l22.8-97.82Z"/>
  <path class="st0" d="M236.76,324.79c1.57.2,3.15.38,4.74.51l-12.21,99.58c-1.6-.15-3.17-.37-4.74-.55l12.21-99.54Z"/>
  <path class="st0" d="M321.7,130.07c-19.12-15.81-42.1-23.76-68.93-23.83-30.77-.09-56.39,10.16-76.86,30.78-11.28,11.35-19.44,24.42-24.54,39.17l-94.17-40.41c10.22-25.53,25.7-48.67,46.53-69.38C144.43,25.96,194.2,5.82,253.07,6c52.78.16,98.24,16.66,136.43,49.41l-67.8,74.66Z"/>
  <path class="st0" d="M212.76,318.98c1.78.66,3.59,1.28,5.43,1.85l-34,94.72c-1.82-.58-3.65-1.18-5.44-1.82l34-94.75Z"/>
  <path class="st0" d="M173.14,292.07c.76.82,1.5,1.65,2.29,2.45,1.01,1.03,2.04,2.02,3.07,2.99l-71.34,71.36c-1.44-1.39-2.91-2.73-4.34-4.17-.39-.39-.74-.79-1.12-1.18l71.43-71.45Z"/>
  <path class="st0" d="M319.75,303.47c.24-.2.5-.39.75-.58l62.35,79.19c-.25.19-.5.39-.75.57l-62.35-79.18Z"/>
  <path class="st0" d="M299.05,316.18c.58-.26,1.15-.57,1.72-.83l43.8,90.7c-.57.28-1.13.58-1.72.86l-43.8-90.73Z"/>
  <path class="st0" d="M309.63,310.53c.55-.33,1.08-.67,1.62-1.02l53.43,85.41c-.54.34-1.07.69-1.61,1.03l-53.44-85.42Z"/>
  <path class="st0" d="M147.27,240.42c.49,2.57,1.05,5.11,1.71,7.61l-98.98,26.66c-.81-2.98-1.56-5.97-2.24-9l99.52-25.27Z"/>
  <path class="st0" d="M145.59,228.38c.25,2.91.61,5.76,1.07,8.57l-101.5,14.85c-.52-3.34-.96-6.72-1.32-10.13l101.76-13.28Z"/>
  <path class="st0" d="M145.68,202.91c-.3,3.21-.48,6.48-.57,9.81l-102.45-6.9c.16-3.77.4-7.5.72-11.19l102.3,8.28Z"/>
  <path class="st0" d="M145.05,216.06c0,3.13.12,6.19.32,9.23l-102.55,3.93c-.18-3.4-.28-6.83-.32-10.3l102.55-2.86Z"/>
  <path class="st0" d="M150.45,179c-.92,2.95-1.75,5.97-2.44,9.05l-98.33-29.44c1.03-3.87,2.16-7.69,3.4-11.45l97.37,31.85Z"/>
  <path class="st0" d="M147.41,190.99c-.57,2.89-1.03,5.83-1.39,8.82l-101.11-18.08c.55-3.68,1.18-7.32,1.9-10.91l100.59,20.17Z"/>
  <path class="st0" d="M181.99,300.65c1.7,1.47,3.41,2.89,5.17,4.23l-62.52,79.04c-1.76-1.37-3.52-2.73-5.24-4.15l62.6-79.12Z"/>
  <path class="st0" d="M201.91,314.19c1.7.88,3.42,1.71,5.18,2.48l-44.1,90.59c-1.73-.8-3.45-1.65-5.16-2.51l44.08-90.56Z"/>
  <path class="st0" d="M165.48,282.82c1.5,2.05,3.09,4.04,4.76,5.99l-78.48,63.83c-1.68-1.93-3.31-3.89-4.89-5.86l78.62-63.96Z"/>
  <path class="st0" d="M191.35,307.91c1.85,1.27,3.73,2.45,5.65,3.58l-54.58,84.76c-1.89-1.16-3.76-2.38-5.63-3.61l54.56-84.73Z"/>
  <path class="st0" d="M153.71,262.01c1,2.39,2.06,4.74,3.24,7.04l-91.16,45.81c-1.32-2.49-2.57-5.02-3.78-7.57l91.7-45.28Z"/>
  <path class="st0" d="M149.85,251.13c.78,2.65,1.64,5.27,2.61,7.82l-95.57,36.55c-1.14-2.89-2.24-5.81-3.25-8.77l96.21-35.6Z"/>
  <path class="st0" d="M158.69,272.25c1.36,2.43,2.82,4.82,4.38,7.14l-85.55,54.81c-1.62-2.36-3.16-4.76-4.67-7.16l85.84-54.78Z"/>
  <path class="st0" d="M277.26,242.82c-7.46,7.45-16.39,11.18-26.82,11.18s-19.37-3.73-26.82-11.18c-7.45-7.44-11.17-16.38-11.17-26.82s3.72-19.35,11.17-26.81c7.45-7.45,16.38-11.18,26.82-11.18s19.36,3.73,26.82,11.18c7.45,7.46,11.17,16.39,11.17,26.81s-3.72,19.38-11.17,26.82"/>
</svg>