<?xml version="1.0" encoding="UTF-8"?>
<svg id="Layer_1" xmlns="http://www.w3.org/2000/svg" version="1.1" viewBox="0 0 512 512">
  <!-- Generator: Adobe Illustrator 29.8.1, SVG Export Plug-In . SVG Version: 2.1.1 Build 2)  -->
  <defs>
    <style>
      .st0 {
        fill: #fcb61a;
      }
    </style>
  </defs>
  <path class="st0" d="M311.92,386.78c1.53-.13,3.02-.29,4.52-.47l13.69,118.61c-1.52.17-3.01.37-4.52.49l-13.69-118.63Z"/>
  <path class="st0" d="M341.8,380.91c1.09-.34,2.17-.7,3.23-1.09l40.78,112.67c-1.08.39-2.15.74-3.23,1.1l-40.78-112.68Z"/>
  <path class="st0" d="M327.33,384.65c1.12-.22,2.23-.44,3.34-.7l27.53,116.39c-1.1.25-2.22.47-3.33.7l-27.54-116.39Z"/>
  <path class="st0" d="M297.02,506.57v-119.34c.67.01,1.31.04,1.96.06.88,0,1.74-.04,2.6-.06l-.02,119.31c-.99.01-1.95.07-2.93.06-.55,0-1.08-.03-1.62-.03"/>
  <path class="st0" d="M267.07,383.7c1.84.43,3.69.83,5.57,1.18l-27.15,116.47c-1.86-.38-3.71-.79-5.56-1.2l27.14-116.45Z"/>
  <path class="st0" d="M280.72,386.11c1.87.24,3.75.45,5.65.61l-14.53,118.55c-1.91-.18-3.77-.44-5.65-.65l14.53-118.5Z"/>
  <path class="st0" d="M381.85,154.3c-22.76-18.82-50.12-28.28-82.06-28.37-36.63-.11-67.13,12.1-91.5,36.64-13.42,13.51-23.14,29.07-29.21,46.63l-112.11-48.1c12.17-30.39,30.59-57.94,55.4-82.59C170.81,30.36,230.07,6.39,300.14,6.6c62.84.19,116.96,19.83,162.42,58.82l-80.72,88.88Z"/>
  <path class="st0" d="M252.15,379.2c2.12.79,4.28,1.53,6.46,2.2l-40.47,112.76c-2.17-.7-4.34-1.4-6.48-2.17l40.48-112.79Z"/>
  <path class="st0" d="M204.99,347.16c.91.98,1.78,1.96,2.73,2.92,1.2,1.22,2.42,2.4,3.66,3.56l-84.93,84.95c-1.72-1.65-3.47-3.25-5.16-4.96-.46-.46-.88-.94-1.34-1.4l85.04-85.06Z"/>
  <path class="st0" d="M379.52,360.73c.29-.24.59-.46.9-.7l74.23,94.27c-.3.22-.59.46-.9.68l-74.23-94.26Z"/>
  <path class="st0" d="M354.89,375.87c.7-.31,1.37-.67,2.04-.99l52.14,107.98c-.68.34-1.35.7-2.04,1.02l-52.14-108.01Z"/>
  <path class="st0" d="M367.48,369.14c.65-.39,1.29-.8,1.93-1.21l63.61,101.68c-.64.4-1.28.82-1.92,1.22l-63.62-101.69Z"/>
  <path class="st0" d="M174.19,285.68c.58,3.06,1.25,6.08,2.03,9.06l-117.83,31.74c-.97-3.55-1.86-7.1-2.67-10.72l118.47-30.08Z"/>
  <path class="st0" d="M172.2,271.34c.3,3.47.73,6.86,1.27,10.2l-120.84,17.68c-.62-3.97-1.14-8-1.57-12.06l121.14-15.81Z"/>
  <path class="st0" d="M172.3,241.01c-.36,3.82-.57,7.71-.67,11.68l-121.96-8.22c.19-4.49.47-8.93.85-13.32l121.78,9.85Z"/>
  <path class="st0" d="M171.55,256.67c0,3.73.15,7.37.38,10.99l-122.08,4.68c-.21-4.05-.34-8.14-.38-12.27l122.08-3.4Z"/>
  <path class="st0" d="M177.97,212.55c-1.1,3.51-2.09,7.1-2.91,10.77l-117.06-35.05c1.22-4.6,2.57-9.16,4.05-13.64l115.91,37.91Z"/>
  <path class="st0" d="M174.36,226.83c-.67,3.45-1.22,6.94-1.65,10.5l-120.37-21.53c.65-4.38,1.4-8.71,2.27-12.99l119.75,24.01Z"/>
  <path class="st0" d="M215.52,357.38c2.02,1.75,4.06,3.45,6.15,5.04l-74.43,94.09c-2.1-1.63-4.19-3.25-6.24-4.94l74.52-94.2Z"/>
  <path class="st0" d="M239.23,373.5c2.02,1.04,4.07,2.03,6.16,2.95l-52.5,107.84c-2.06-.95-4.11-1.96-6.14-2.99l52.48-107.81Z"/>
  <path class="st0" d="M195.87,336.15c1.78,2.44,3.68,4.8,5.67,7.13l-93.43,75.99c-2-2.3-3.94-4.64-5.82-6.98l93.59-76.14Z"/>
  <path class="st0" d="M226.66,366.01c2.2,1.52,4.44,2.92,6.72,4.26l-64.97,100.91c-2.26-1.38-4.48-2.83-6.7-4.3l64.95-100.87Z"/>
  <path class="st0" d="M181.86,311.38c1.19,2.85,2.46,5.65,3.86,8.38l-108.53,54.53c-1.57-2.96-3.06-5.98-4.5-9.01l109.17-53.9Z"/>
  <path class="st0" d="M177.26,298.42c.93,3.15,1.95,6.27,3.11,9.3l-113.77,43.51c-1.36-3.45-2.67-6.91-3.87-10.44l114.53-42.38Z"/>
  <path class="st0" d="M187.79,323.56c1.62,2.9,3.36,5.74,5.22,8.5l-101.85,65.25c-1.93-2.81-3.76-5.67-5.56-8.53l102.19-65.22Z"/>
  <path class="st0" d="M328.94,288.52c-8.88,8.87-19.52,13.31-31.93,13.31s-23.06-4.44-31.93-13.31c-8.87-8.85-13.3-19.51-13.3-31.93s4.43-23.04,13.3-31.92c8.87-8.87,19.51-13.31,31.93-13.31s23.05,4.44,31.93,13.31c8.87,8.88,13.3,19.52,13.3,31.92s-4.43,23.07-13.3,31.93"/>
</svg>